<?xml version="1.0" encoding="UTF-8" standalone="no"?>
<!-- Generated by graphviz version 2.28.0 (20111015.0018)
 -->

<!-- Title: network Pages: 1 -->

<svg
   xmlns:dc="http://purl.org/dc/elements/1.1/"
   xmlns:cc="http://creativecommons.org/ns#"
   xmlns:rdf="http://www.w3.org/1999/02/22-rdf-syntax-ns#"
   xmlns:svg="http://www.w3.org/2000/svg"
   xmlns="http://www.w3.org/2000/svg"
   xmlns:sodipodi="http://sodipodi.sourceforge.net/DTD/sodipodi-0.dtd"
   xmlns:inkscape="http://www.inkscape.org/namespaces/inkscape"
   width="450pt"
   height="256pt"
   viewBox="0.00 0.00 450.00 256.25"
   id="svg2"
   version="1.1"
   inkscape:version="0.48.3 r9882"
   sodipodi:docname="eric.svg">
  <metadata
     id="metadata166">
    <rdf:RDF>
      <cc:Work
         rdf:about="">
        <dc:format>image/svg+xml</dc:format>
        <dc:type
           rdf:resource="http://purl.org/dc/dcmitype/StillImage" />
        <dc:title></dc:title>
      </cc:Work>
    </rdf:RDF>
  </metadata>
  <defs
     id="defs164" />
  <sodipodi:namedview
     pagecolor="#ffffff"
     bordercolor="#666666"
     borderopacity="1"
     objecttolerance="10"
     gridtolerance="10"
     guidetolerance="10"
     inkscape:pageopacity="0"
     inkscape:pageshadow="2"
     inkscape:window-width="1366"
     inkscape:window-height="724"
     id="namedview162"
     showgrid="false"
     inkscape:zoom="1.6744289"
     inkscape:cx="284.62838"
     inkscape:cy="160"
     inkscape:window-x="0"
     inkscape:window-y="27"
     inkscape:window-maximized="1"
     inkscape:current-layer="graph1" />
  <g
     id="graph1"
     class="graph"
     transform="scale(1 1) rotate(0) translate(4 252.254)">
    <title
       id="title5">network</title>
    <polygon
       fill="white"
       stroke="white"
       points="-4,5 -4,-252.254 447,-252.254 447,5 -4,5"
       id="polygon7" />
    <!-- n0 -->
    <g
       id="node1"
       class="node">
      <title
         id="title10">n0</title>
      <ellipse
         fill="none"
         stroke="black"
         cx="36"
         cy="-63.2538"
         rx="36"
         ry="36"
         id="ellipse12"
         d="m 72,-63.253799 c 0,19.882251 -16.117749,36 -36,36 -19.882251,0 -36,-16.117749 -36,-36 0,-19.882251 16.117749,-36 36,-36 19.882251,0 36,16.117749 36,36 z" />
      <text
         text-anchor="middle"
         x="36"
         y="-67.0538"
         font-family="Times,serif"
         font-size="14.00"
         id="text14">eye</text>
      <text
         text-anchor="middle"
         x="36"
         y="-52.0538"
         font-family="Times,serif"
         font-size="14.00"
         id="text16">768</text>
    </g>
    <!-- n2 -->
    <g
       id="node3"
       class="node">
      <title
         id="title19">n2</title>
      <ellipse
         fill="none"
         stroke="black"
         cx="172"
         cy="-63.2538"
         rx="36"
         ry="36"
         id="ellipse21"
         d="m 208,-63.253799 c 0,19.882251 -16.11775,36 -36,36 -19.88225,0 -36,-16.117749 -36,-36 0,-19.882251 16.11775,-36 36,-36 19.88225,0 36,16.117749 36,36 z" />
      <text
         text-anchor="middle"
         x="172"
         y="-67.0538"
         font-family="Times,serif"
         font-size="14.00"
         id="text23">brain</text>
      <text
         text-anchor="middle"
         x="172"
         y="-52.0538"
         font-family="Times,serif"
         font-size="14.00"
         id="text25">400</text>
    </g>
    <!-- n0&#45;&gt;n2 -->
    <g
       id="edge4"
       class="edge">
      <title
         id="title28">n0-&gt;n2</title>
      <path
         fill="none"
         stroke="black"
         d="M72.2069,-63.2538C88.3891,-63.2538 107.793,-63.2538 125.103,-63.2538"
         id="path30" />
      <polygon
         fill="black"
         stroke="black"
         points="125.563,-66.7539 135.563,-63.2538 125.563,-59.7539 125.563,-66.7539"
         id="polygon32" />
      <text
         text-anchor="middle"
         x="104"
         y="-66.2538"
         font-family="Times,serif"
         font-size="10.00"
         id="text34">15309</text>
    </g>
    <!-- n1 -->
    <!-- n3 -->
    <g
       id="node4"
       class="node">
      <title
         id="title46">n3</title>
      <ellipse
         fill="none"
         stroke="black"
         cx="406"
         cy="-164.254"
         rx="36"
         ry="36"
         id="ellipse48"
         d="m 442,-164.254 c 0,19.88225 -16.11775,36 -36,36 -19.88225,0 -36,-16.11775 -36,-36 0,-19.88225 16.11775,-36 36,-36 19.88225,0 36,16.11775 36,36 z" />
      <text
         text-anchor="middle"
         x="406"
         y="-168.054"
         font-family="Times,serif"
         font-size="14.00"
         id="text50">speed</text>
      <text
         text-anchor="middle"
         x="406"
         y="-153.054"
         font-family="Times,serif"
         font-size="14.00"
         id="text52">1</text>
    </g>
    <!-- n1&#45;&gt;n3 -->
    <!-- n4 -->
    <g
       id="node5"
       class="node">
      <title
         id="title64">n4</title>
      <ellipse
         fill="none"
         stroke="black"
         cx="406"
         cy="-63.2538"
         rx="36"
         ry="36"
         id="ellipse66"
         d="m 442,-63.253799 c 0,19.882251 -16.11775,36 -36,36 -19.88225,0 -36,-16.117749 -36,-36 0,-19.882251 16.11775,-36 36,-36 19.88225,0 36,16.117749 36,36 z" />
      <text
         text-anchor="middle"
         x="406"
         y="-67.0538"
         font-family="Times,serif"
         font-size="14.00"
         id="text68">direction</text>
      <text
         text-anchor="middle"
         x="406"
         y="-52.0538"
         font-family="Times,serif"
         font-size="14.00"
         id="text70">1</text>
    </g>
    <!-- n1&#45;&gt;n4 -->
    <!-- n5 -->
    <g
       id="node6"
       class="node">
      <title
         id="title82">n5</title>
      <ellipse
         fill="none"
         stroke="black"
         cx="292"
         cy="-63.2538"
         rx="36"
         ry="36"
         id="ellipse84"
         d="m 328,-63.253799 c 0,19.882251 -16.11775,36 -36,36 -19.88225,0 -36,-16.117749 -36,-36 0,-19.882251 16.11775,-36 36,-36 19.88225,0 36,16.117749 36,36 z" />
      <text
         text-anchor="middle"
         x="292"
         y="-67.0538"
         font-family="Times,serif"
         font-size="14.00"
         id="text86">explore</text>
      <text
         text-anchor="middle"
         x="292"
         y="-52.0538"
         font-family="Times,serif"
         font-size="14.00"
         id="text88">3</text>
    </g>
    <!-- n1&#45;&gt;n5 -->
    <!-- n2&#45;&gt;n2 -->
    <g
       id="edge2"
       class="edge">
      <title
         id="title100">n2-&gt;n2</title>
      <path
         fill="none"
         stroke="black"
         d="M160.753,-97.5294C160.868,-108.533 164.617,-117.254 172,-117.254 176.845,-117.254 180.125,-113.498 181.84,-107.806"
         id="path102" />
      <polygon
         fill="black"
         stroke="black"
         points="185.358,-107.912 183.247,-97.5294 178.423,-106.962 185.358,-107.912"
         id="polygon104" />
      <text
         text-anchor="middle"
         x="172"
         y="-120.254"
         font-family="Times,serif"
         font-size="10.00"
         id="text106">24020</text>
    </g>
    <!-- n2&#45;&gt;n3 -->
    <g
       id="edge6"
       class="edge">
      <title
         id="title109">n2-&gt;n3</title>
      <path
         fill="none"
         stroke="black"
         d="M184.641,-96.9885C193.048,-115.973 206.409,-138.219 226,-150.254 266.18,-174.935 321.379,-175.336 359.816,-171.533"
         id="path111" />
      <polygon
         fill="black"
         stroke="black"
         points="360.641,-174.962 370.186,-170.365 359.858,-168.006 360.641,-174.962"
         id="polygon113" />
      <text
         text-anchor="middle"
         x="292"
         y="-176.254"
         font-family="Times,serif"
         font-size="10.00"
         id="text115">36</text>
    </g>
    <!-- n2&#45;&gt;n4 -->
    <g
       id="edge10"
       class="edge">
      <title
         id="title118">n2-&gt;n4</title>
      <path
         fill="none"
         stroke="black"
         d="M199.269,-39.5526C214.621,-27.3247 235.055,-13.6588 256,-7.25376 286.601,2.10413 297.569,2.64205 328,-7.25376 343.732,-12.3694 358.931,-22.0436 371.61,-31.9304"
         id="path120" />
      <polygon
         fill="black"
         stroke="black"
         points="369.596,-34.8047 379.558,-38.4124 374.021,-29.3799 369.596,-34.8047"
         id="polygon122" />
      <text
         text-anchor="middle"
         x="292"
         y="-10.2538"
         font-family="Times,serif"
         font-size="10.00"
         id="text124">42</text>
    </g>
    <!-- n2&#45;&gt;n5 -->
    <g
       id="edge14"
       class="edge">
      <title
         id="title127">n2-&gt;n5</title>
      <path
         fill="none"
         stroke="black"
         d="M208.084,-63.2538C219.867,-63.2538 233.181,-63.2538 245.638,-63.2538"
         id="path129" />
      <polygon
         fill="black"
         stroke="black"
         points="245.847,-66.7539 255.847,-63.2538 245.847,-59.7539 245.847,-66.7539"
         id="polygon131" />
      <text
         text-anchor="middle"
         x="232"
         y="-66.2538"
         font-family="Times,serif"
         font-size="10.00"
         id="text133">69</text>
    </g>
    <!-- n5&#45;&gt;n3 -->
    <g
       id="edge22"
       class="edge">
      <title
         id="title136">n5-&gt;n3</title>
      <path
         fill="none"
         stroke="black"
         d="M319.259,-86.9338C334.595,-100.763 354.122,-118.373 370.667,-133.292"
         id="path138" />
      <polygon
         fill="black"
         stroke="black"
         points="368.747,-136.274 378.517,-140.372 373.435,-131.076 368.747,-136.274"
         id="polygon140" />
      <text
         text-anchor="middle"
         x="349"
         y="-116.254"
         font-family="Times,serif"
         font-size="10.00"
         id="text142">3</text>
    </g>
    <!-- n5&#45;&gt;n4 -->
    <g
       id="edge20"
       class="edge">
      <title
         id="title145">n5-&gt;n4</title>
      <path
         fill="none"
         stroke="black"
         d="M328.13,-63.2538C338.138,-63.2538 349.183,-63.2538 359.705,-63.2538"
         id="path147" />
      <polygon
         fill="black"
         stroke="black"
         points="359.994,-66.7539 369.994,-63.2538 359.994,-59.7539 359.994,-66.7539"
         id="polygon149" />
      <text
         text-anchor="middle"
         x="349"
         y="-66.2538"
         font-family="Times,serif"
         font-size="10.00"
         id="text151">2</text>
    </g>
    <!-- n5&#45;&gt;n5 -->
    <g
       id="edge18"
       class="edge">
      <title
         id="title154">n5-&gt;n5</title>
      <path
         fill="none"
         stroke="black"
         d="M281.506,-97.791C281.666,-108.671 285.164,-117.254 292,-117.254 296.486,-117.254 299.535,-113.557 301.146,-107.941"
         id="path156" />
      <polygon
         fill="black"
         stroke="black"
         points="304.647,-108.165 302.494,-97.791 297.708,-107.243 304.647,-108.165"
         id="polygon158" />
      <text
         text-anchor="middle"
         x="292"
         y="-120.254"
         font-family="Times,serif"
         font-size="10.00"
         id="text160">6</text>
    </g>
  </g>
</svg>
