<?xml version="1.0" encoding="UTF-8" standalone="no"?>
<!DOCTYPE svg PUBLIC "-//W3C//DTD SVG 1.1//EN"
 "http://www.w3.org/Graphics/SVG/1.1/DTD/svg11.dtd">
<!-- Generated by graphviz version 2.28.0 (20111015.0018)
 -->
<!-- Title: network Pages: 1 -->
<svg width="450pt" height="256pt"
 viewBox="0.00 0.00 450.00 256.25" xmlns="http://www.w3.org/2000/svg" xmlns:xlink="http://www.w3.org/1999/xlink">
<g id="graph1" class="graph" transform="scale(1 1) rotate(0) translate(4 252.254)">
<title>network</title>
<polygon fill="white" stroke="white" points="-4,5 -4,-252.254 447,-252.254 447,5 -4,5"/>
<!-- n0 -->
<g id="node1" class="node"><title>n0</title>
<ellipse fill="none" stroke="black" cx="36" cy="-63.2538" rx="36" ry="36"/>
<text text-anchor="middle" x="36" y="-67.0538" font-family="Times,serif" font-size="14.00">eye</text>
<text text-anchor="middle" x="36" y="-52.0538" font-family="Times,serif" font-size="14.00">768</text>
</g>
<!-- n2 -->
<g id="node3" class="node"><title>n2</title>
<ellipse fill="none" stroke="black" cx="172" cy="-63.2538" rx="36" ry="36"/>
<text text-anchor="middle" x="172" y="-67.0538" font-family="Times,serif" font-size="14.00">brain</text>
<text text-anchor="middle" x="172" y="-52.0538" font-family="Times,serif" font-size="14.00">400</text>
</g>
<!-- n0&#45;&gt;n2 -->
<g id="edge4" class="edge"><title>n0&#45;&gt;n2</title>
<path fill="none" stroke="black" d="M72.2069,-63.2538C88.3891,-63.2538 107.793,-63.2538 125.103,-63.2538"/>
<polygon fill="black" stroke="black" points="125.563,-66.7539 135.563,-63.2538 125.563,-59.7539 125.563,-66.7539"/>
<text text-anchor="middle" x="104" y="-66.2538" font-family="Times,serif" font-size="10.00">15309</text>
</g>
<!-- n1 -->
<g id="node2" class="node"><title>n1</title>
<ellipse fill="none" stroke="black" cx="172" cy="-211.254" rx="36" ry="36"/>
<text text-anchor="middle" x="172" y="-215.054" font-family="Times,serif" font-size="14.00">value</text>
<text text-anchor="middle" x="172" y="-200.054" font-family="Times,serif" font-size="14.00">1</text>
</g>
<!-- n3 -->
<g id="node4" class="node"><title>n3</title>
<ellipse fill="none" stroke="black" cx="406" cy="-164.254" rx="36" ry="36"/>
<text text-anchor="middle" x="406" y="-168.054" font-family="Times,serif" font-size="14.00">speed</text>
<text text-anchor="middle" x="406" y="-153.054" font-family="Times,serif" font-size="14.00">1</text>
</g>
<!-- n1&#45;&gt;n3 -->
<g id="edge8" class="edge"><title>n1&#45;&gt;n3</title>
<path fill="none" stroke="black" d="M206.19,-223.444C243.582,-235.069 305.234,-247.761 352,-225.254 362.755,-220.078 372.215,-211.605 380.053,-202.598"/>
<polygon fill="black" stroke="black" points="382.944,-204.59 386.516,-194.615 377.503,-200.185 382.944,-204.59"/>
<text text-anchor="middle" x="292" y="-240.254" font-family="Times,serif" font-size="10.00">1</text>
</g>
<!-- n4 -->
<g id="node5" class="node"><title>n4</title>
<ellipse fill="none" stroke="black" cx="406" cy="-63.2538" rx="36" ry="36"/>
<text text-anchor="middle" x="406" y="-67.0538" font-family="Times,serif" font-size="14.00">direction</text>
<text text-anchor="middle" x="406" y="-52.0538" font-family="Times,serif" font-size="14.00">1</text>
</g>
<!-- n1&#45;&gt;n4 -->
<g id="edge12" class="edge"><title>n1&#45;&gt;n4</title>
<path fill="none" stroke="black" d="M208.005,-214.168C241.533,-215.205 292.18,-212.013 328,-188.254 357.918,-168.409 351.153,-149.81 370,-119.254 373.397,-113.747 376.997,-107.946 380.546,-102.249"/>
<polygon fill="black" stroke="black" points="383.719,-103.775 386.044,-93.4386 377.78,-100.069 383.719,-103.775"/>
<text text-anchor="middle" x="292" y="-214.254" font-family="Times,serif" font-size="10.00">1</text>
</g>
<!-- n5 -->
<g id="node6" class="node"><title>n5</title>
<ellipse fill="none" stroke="black" cx="292" cy="-63.2538" rx="36" ry="36"/>
<text text-anchor="middle" x="292" y="-67.0538" font-family="Times,serif" font-size="14.00">explore</text>
<text text-anchor="middle" x="292" y="-52.0538" font-family="Times,serif" font-size="14.00">3</text>
</g>
<!-- n1&#45;&gt;n5 -->
<g id="edge16" class="edge"><title>n1&#45;&gt;n5</title>
<path fill="none" stroke="black" d="M195.195,-183.416C214.231,-159.54 241.779,-124.989 262.453,-99.0583"/>
<polygon fill="black" stroke="black" points="265.407,-100.968 268.905,-90.9666 259.934,-96.6037 265.407,-100.968"/>
<text text-anchor="middle" x="232" y="-144.254" font-family="Times,serif" font-size="10.00">3</text>
</g>
<!-- n2&#45;&gt;n2 -->
<g id="edge2" class="edge"><title>n2&#45;&gt;n2</title>
<path fill="none" stroke="black" d="M160.753,-97.5294C160.868,-108.533 164.617,-117.254 172,-117.254 176.845,-117.254 180.125,-113.498 181.84,-107.806"/>
<polygon fill="black" stroke="black" points="185.358,-107.912 183.247,-97.5294 178.423,-106.962 185.358,-107.912"/>
<text text-anchor="middle" x="172" y="-120.254" font-family="Times,serif" font-size="10.00">24020</text>
</g>
<!-- n2&#45;&gt;n3 -->
<g id="edge6" class="edge"><title>n2&#45;&gt;n3</title>
<path fill="none" stroke="black" d="M184.641,-96.9885C193.048,-115.973 206.409,-138.219 226,-150.254 266.18,-174.935 321.379,-175.336 359.816,-171.533"/>
<polygon fill="black" stroke="black" points="360.641,-174.962 370.186,-170.365 359.858,-168.006 360.641,-174.962"/>
<text text-anchor="middle" x="292" y="-176.254" font-family="Times,serif" font-size="10.00">36</text>
</g>
<!-- n2&#45;&gt;n4 -->
<g id="edge10" class="edge"><title>n2&#45;&gt;n4</title>
<path fill="none" stroke="black" d="M199.269,-39.5526C214.621,-27.3247 235.055,-13.6588 256,-7.25376 286.601,2.10413 297.569,2.64205 328,-7.25376 343.732,-12.3694 358.931,-22.0436 371.61,-31.9304"/>
<polygon fill="black" stroke="black" points="369.596,-34.8047 379.558,-38.4124 374.021,-29.3799 369.596,-34.8047"/>
<text text-anchor="middle" x="292" y="-10.2538" font-family="Times,serif" font-size="10.00">42</text>
</g>
<!-- n2&#45;&gt;n5 -->
<g id="edge14" class="edge"><title>n2&#45;&gt;n5</title>
<path fill="none" stroke="black" d="M208.084,-63.2538C219.867,-63.2538 233.181,-63.2538 245.638,-63.2538"/>
<polygon fill="black" stroke="black" points="245.847,-66.7539 255.847,-63.2538 245.847,-59.7539 245.847,-66.7539"/>
<text text-anchor="middle" x="232" y="-66.2538" font-family="Times,serif" font-size="10.00">69</text>
</g>
<!-- n5&#45;&gt;n3 -->
<g id="edge22" class="edge"><title>n5&#45;&gt;n3</title>
<path fill="none" stroke="black" d="M319.259,-86.9338C334.595,-100.763 354.122,-118.373 370.667,-133.292"/>
<polygon fill="black" stroke="black" points="368.747,-136.274 378.517,-140.372 373.435,-131.076 368.747,-136.274"/>
<text text-anchor="middle" x="349" y="-116.254" font-family="Times,serif" font-size="10.00">3</text>
</g>
<!-- n5&#45;&gt;n4 -->
<g id="edge20" class="edge"><title>n5&#45;&gt;n4</title>
<path fill="none" stroke="black" d="M328.13,-63.2538C338.138,-63.2538 349.183,-63.2538 359.705,-63.2538"/>
<polygon fill="black" stroke="black" points="359.994,-66.7539 369.994,-63.2538 359.994,-59.7539 359.994,-66.7539"/>
<text text-anchor="middle" x="349" y="-66.2538" font-family="Times,serif" font-size="10.00">2</text>
</g>
<!-- n5&#45;&gt;n5 -->
<g id="edge18" class="edge"><title>n5&#45;&gt;n5</title>
<path fill="none" stroke="black" d="M281.506,-97.791C281.666,-108.671 285.164,-117.254 292,-117.254 296.486,-117.254 299.535,-113.557 301.146,-107.941"/>
<polygon fill="black" stroke="black" points="304.647,-108.165 302.494,-97.791 297.708,-107.243 304.647,-108.165"/>
<text text-anchor="middle" x="292" y="-120.254" font-family="Times,serif" font-size="10.00">6</text>
</g>
</g>
</svg>
